# xmcd
#
# Track frame offsets:
#	150
#	19262
#	39568
#	56891
#	74213
#	99011
#	115442
#	136308
#	149924
#	167288
#	189881
#	217431
#	236252
#	254985
#	274141
#
# Disc length: 3939 seconds
#
# Revision: 2
# Processed by: cddbd v1.5.2PL0 Copyright (c) Steve Scherf et al.
# Submitted via: audiograbber 1.83.01
#
DISCID=f10f610f
DTITLE=Various Artist - DJ Beats Volume 4
DYEAR=1900
DGENRE=
TTITLE0=House Of Pain - Jump Around
TTITLE1=Shania Twain - Man I Feel Like A Woman
TTITLE2=Dire Straits - Money For Nothing
TTITLE3=Rednex - Cotton Eye Joe
TTITLE4=Whitney Houston - I Wanna Dance With Somebody
TTITLE5=Faithless - Insomnia
TTITLE6=Luther Vandross - Never Too Much
TTITLE7=£1 Fish Man - One Pound Fish
TTITLE8=Depeche Mode - Just Can't Get Enough
TTITLE9=Adamski - Killer
TTITLE10=Madonna - Like A Prayer
TTITLE11=R. Kelly - She's Got That Vibe
TTITLE12=Bobby Brown - Two Can Play That Game
TTITLE13=Village People - YMCA
TTITLE14=Will.I.Am and Britney Spears - Scream and Shout
EXTD=
EXTT0=
EXTT1=
EXTT2=
EXTT3=
EXTT4=
EXTT5=
EXTT6=
EXTT7=
EXTT8=
EXTT9=
EXTT10=
EXTT11=
EXTT12=
EXTT13=
EXTT14=
PLAYORDER=
